<?xml version="1.0" encoding="UTF-8" standalone="no"?>
<svg xmlns="http://www.w3.org/2000/svg" width="700" height="300" viewBox="0 0 700 300">
  <defs>
    <filter id="boxShadow" x="-10%" y="-10%" width="120%" height="120%">
      <feDropShadow dx="2" dy="2" stdDeviation="2" flood-opacity="0.3" />
    </filter>
    <linearGradient id="titleGradient" x1="0%" y1="0%" x2="0%" y2="100%">
      <stop offset="0%" style="stop-color:#4a6fa5;stop-opacity:1" />
      <stop offset="100%" style="stop-color:#3a5a8c;stop-opacity:1" />
    </linearGradient>
    <linearGradient id="batteryGradient" x1="0%" y1="0%" x2="0%" y2="100%">
      <stop offset="0%" style="stop-color:#e6f2ff;stop-opacity:1" />
      <stop offset="100%" style="stop-color:#cce6ff;stop-opacity:1" />
    </linearGradient>
  </defs>
  
  <!-- Title -->
  <rect x="100" y="20" width="500" height="40" rx="5" ry="5" fill="url(#titleGradient)" filter="url(#boxShadow)" />
  <text x="350" y="45" text-anchor="middle" font-family="Arial, sans-serif" font-size="18" fill="white" font-weight="bold">Battery Thermal Equivalent Circuit Model</text>
  
  <!-- Thermal Circuit Background -->
  <rect x="50" y="80" width="600" height="180" rx="10" ry="10" fill="#f9f9f9" stroke="#ccc" stroke-width="1" filter="url(#boxShadow)" />
  
  <!-- Heat Source (Battery Core) -->
  <rect x="80" y="140" width="60" height="60" rx="5" ry="5" fill="url(#batteryGradient)" stroke="#4a6fa5" stroke-width="2" />
  <text x="110" y="170" text-anchor="middle" font-family="Arial, sans-serif" font-size="12" fill="#333" font-weight="bold">Heat</text>
  <text x="110" y="185" text-anchor="middle" font-family="Arial, sans-serif" font-size="12" fill="#333" font-weight="bold">Source</text>
  <text x="110" y="215" text-anchor="middle" font-family="Arial, sans-serif" font-size="10" fill="#666">(Battery Core)</text>
  
  <!-- Main circuit line -->
  <line x1="140" y1="170" x2="620" y2="170" stroke="#333" stroke-width="2" />
  
  <!-- Thermal Resistor R1 (Cell Material) -->
  <path d="M180,170 L180,150 L190,145 L200,155 L210,145 L220,155 L230,145 L240,155 L250,145 L260,155 L270,170" fill="none" stroke="#cc0000" stroke-width="2" />
  <text x="225" y="130" text-anchor="middle" font-family="Arial, sans-serif" font-size="12" fill="#333" font-weight="bold">R₁</text>
  <text x="225" y="205" text-anchor="middle" font-family="Arial, sans-serif" font-size="10" fill="#666">(Cell Material)</text>
  
  <!-- Thermal Capacitor C1 (Cell Heat Capacity) -->
  <line x1="225" y1="170" x2="225" y2="200" stroke="#333" stroke-width="2" />
  <line x1="205" y1="200" x2="245" y2="200" stroke="#0066cc" stroke-width="2" />
  <line x1="205" y1="210" x2="245" y2="210" stroke="#0066cc" stroke-width="2" />
  <line x1="225" y1="210" x2="225" y2="230" stroke="#333" stroke-width="2" />
  <line x1="205" y1="230" x2="245" y2="230" stroke="#333" stroke-width="1" />
  <text x="225" y="245" text-anchor="middle" font-family="Arial, sans-serif" font-size="12" fill="#333" font-weight="bold">C₁</text>
  <text x="225" y="260" text-anchor="middle" font-family="Arial, sans-serif" font-size="10" fill="#666">(Cell Heat Capacity)</text>
  
  <!-- Thermal Resistor R2 (Cell-to-Case) -->
  <path d="M310,170 L310,150 L320,145 L330,155 L340,145 L350,155 L360,145 L370,155 L380,145 L390,155 L400,170" fill="none" stroke="#cc0000" stroke-width="2" />
  <text x="355" y="130" text-anchor="middle" font-family="Arial, sans-serif" font-size="12" fill="#333" font-weight="bold">R₂</text>
  <text x="355" y="205" text-anchor="middle" font-family="Arial, sans-serif" font-size="10" fill="#666">(Cell-to-Case)</text>
  
  <!-- Thermal Capacitor C2 (Case Heat Capacity) -->
  <line x1="355" y1="170" x2="355" y2="200" stroke="#333" stroke-width="2" />
  <line x1="335" y1="200" x2="375" y2="200" stroke="#0066cc" stroke-width="2" />
  <line x1="335" y1="210" x2="375" y2="210" stroke="#0066cc" stroke-width="2" />
  <line x1="355" y1="210" x2="355" y2="230" stroke="#333" stroke-width="2" />
  <line x1="335" y1="230" x2="375" y2="230" stroke="#333" stroke-width="1" />
  <text x="355" y="245" text-anchor="middle" font-family="Arial, sans-serif" font-size="12" fill="#333" font-weight="bold">C₂</text>
  <text x="355" y="260" text-anchor="middle" font-family="Arial, sans-serif" font-size="10" fill="#666">(Case Heat Capacity)</text>
  
  <!-- Thermal Resistor R3 (Case-to-Environment) -->
  <path d="M440,170 L440,150 L450,145 L460,155 L470,145 L480,155 L490,145 L500,155 L510,145 L520,155 L530,170" fill="none" stroke="#cc0000" stroke-width="2" />
  <text x="485" y="130" text-anchor="middle" font-family="Arial, sans-serif" font-size="12" fill="#333" font-weight="bold">R₃</text>
  <text x="485" y="205" text-anchor="middle" font-family="Arial, sans-serif" font-size="10" fill="#666">(Case-to-Environment)</text>
  
  <!-- Thermal Capacitor C3 (Environment) -->
  <line x1="485" y1="170" x2="485" y2="200" stroke="#333" stroke-width="2" />
  <line x1="465" y1="200" x2="505" y2="200" stroke="#0066cc" stroke-width="2" />
  <line x1="465" y1="210" x2="505" y2="210" stroke="#0066cc" stroke-width="2" />
  <line x1="485" y1="210" x2="485" y2="230" stroke="#333" stroke-width="2" />
  <line x1="465" y1="230" x2="505" y2="230" stroke="#333" stroke-width="1" />
  <text x="485" y="245" text-anchor="middle" font-family="Arial, sans-serif" font-size="12" fill="#333" font-weight="bold">C₃</text>
  <text x="485" y="260" text-anchor="middle" font-family="Arial, sans-serif" font-size="10" fill="#666">(Environment)</text>
  
  <!-- Ground symbol -->
  <line x1="580" y1="170" x2="580" y2="200" stroke="#333" stroke-width="2" />
  <line x1="560" y1="200" x2="600" y2="200" stroke="#333" stroke-width="2" />
  <line x1="565" y1="210" x2="595" y2="210" stroke="#333" stroke-width="2" />
  <line x1="570" y1="220" x2="590" y2="220" stroke="#333" stroke-width="2" />
  <line x1="575" y1="230" x2="585" y2="230" stroke="#333" stroke-width="2" />
  <text x="580" y="250" text-anchor="middle" font-family="Arial, sans-serif" font-size="10" fill="#666">(Reference Temperature)</text>
  
  <!-- Labels -->
  <text x="165" y="100" text-anchor="middle" font-family="Arial, sans-serif" font-size="14" fill="#333" font-weight="bold">Core</text>
  <text x="355" y="100" text-anchor="middle" font-family="Arial, sans-serif" font-size="14" fill="#333" font-weight="bold">Cell Case</text>
  <text x="545" y="100" text-anchor="middle" font-family="Arial, sans-serif" font-size="14" fill="#333" font-weight="bold">Environment</text>
  
  <!-- Arrows indicating heat flow direction -->
  <path d="M150,150 L160,150 L155,145 L160,150 L155,155" fill="none" stroke="#666" stroke-width="1.5" />
  <path d="M280,150 L290,150 L285,145 L290,150 L285,155" fill="none" stroke="#666" stroke-width="1.5" />
  <path d="M410,150 L420,150 L415,145 L420,150 L415,155" fill="none" stroke="#666" stroke-width="1.5" />
  <path d="M540,150 L550,150 L545,145 L550,150 L545,155" fill="none" stroke="#666" stroke-width="1.5" />
  <text x="350" y="70" text-anchor="middle" font-family="Arial, sans-serif" font-size="10" fill="#666">Heat Flow Direction</text>
</svg>
