<?xml version="1.0" encoding="UTF-8" standalone="no"?>
<svg xmlns="http://www.w3.org/2000/svg" width="700" height="450" viewBox="0 0 700 450">
  <defs>
    <!-- Electrical Circuit Elements -->
    <symbol id="resistor" viewBox="0 0 60 20">
      <path d="M0,10 L5,10 L8,2 L14,18 L20,2 L26,18 L32,2 L38,18 L44,2 L50,18 L53,10 L60,10" 
            stroke="#000000" stroke-width="1.5" fill="none" />
    </symbol>
    
    <symbol id="capacitor" viewBox="0 0 20 30">
      <line x1="0" y1="0" x2="0" y2="30" stroke="#000000" stroke-width="1.5" />
      <line x1="20" y1="0" x2="20" y2="30" stroke="#000000" stroke-width="1.5" />
    </symbol>
    
    <symbol id="inductor" viewBox="0 0 60 20">
      <path d="M0,10 C5,10 5,0 10,0 S15,20 20,20 S25,0 30,0 S35,20 40,20 S45,0 50,0 S55,10 60,10" 
            stroke="#000000" stroke-width="1.5" fill="none" />
    </symbol>
    
    <!-- Thermal Circuit Elements -->
    <symbol id="thermalResistor" viewBox="0 0 60 20">
      <rect x="0" y="0" width="60" height="20" fill="#dddddd" stroke="#333333" stroke-width="1.5" />
    </symbol>
    
    <symbol id="thermalCapacitor" viewBox="0 0 30 40">
      <line x1="10" y1="0" x2="10" y2="40" stroke="#333333" stroke-width="2" />
      <line x1="20" y1="0" x2="20" y2="40" stroke="#333333" stroke-width="2" />
    </symbol>
    
    <symbol id="thermalInductor" viewBox="0 0 60 20">
      <path d="M0,20 C0,10 10,0 30,0 S60,10 60,20" stroke="#333333" stroke-width="1.5" fill="none" />
    </symbol>
    
    <linearGradient id="orangeGradient" x1="0%" y1="0%" x2="100%" y2="0%">
      <stop offset="0%" style="stop-color:#ff6600;stop-opacity:1" />
      <stop offset="100%" style="stop-color:#ffcc00;stop-opacity:1" />
    </linearGradient>
    
    <linearGradient id="blueGradient" x1="0%" y1="0%" x2="100%" y2="0%">
      <stop offset="0%" style="stop-color:#0066cc;stop-opacity:1" />
      <stop offset="100%" style="stop-color:#66ccff;stop-opacity:1" />
    </linearGradient>
  </defs>
  
  <!-- Background -->
  <rect width="700" height="450" fill="#f8f8f8" />
  
  <!-- Title -->
  <text x="350" y="30" font-family="Arial" font-size="22" text-anchor="middle" font-weight="bold">Electrical vs Thermal Impedance</text>
  
  <!-- Divider Line -->
  <line x1="350" y1="60" x2="350" y2="410" stroke="#999999" stroke-width="2" stroke-dasharray="5,5" />
  
  <!-- Electrical Impedance Side -->
  <g>
    <rect x="50" y="70" width="250" height="50" rx="5" ry="5" fill="url(#orangeGradient)" />
    <text x="175" y="100" font-family="Arial" font-size="20" text-anchor="middle" font-weight="bold" fill="#333333">Electrical Impedance</text>
    
    <!-- Basic Definition -->
    <rect x="50" y="130" width="250" height="70" rx="5" ry="5" fill="#fff4e6" stroke="#ffaa00" stroke-width="1" />
    <text x="175" y="155" font-family="Arial" font-size="14" text-anchor="middle">Opposition to AC current flow</text>
    <text x="175" y="180" font-family="Arial" font-size="14" text-anchor="middle">Z = R + jX (Ohms, Ω)</text>
    
    <!-- Components -->
    <text x="175" y="230" font-family="Arial" font-size="16" text-anchor="middle" font-weight="bold">Components</text>
    
    <!-- Resistor -->
    <g transform="translate(60, 250)">
      <use xlink:href="#resistor" x="0" y="0" width="60" height="20" />
      <text x="30" y="40" font-family="Arial" font-size="14" text-anchor="middle">Resistance (R)</text>
      <text x="30" y="58" font-family="Arial" font-size="12" text-anchor="middle">Energy dissipation</text>
    </g>
    
    <!-- Capacitor -->
    <g transform="translate(165, 250)">
      <use xlink:href="#capacitor" x="0" y="0" width="20" height="30" />
      <text x="10" y="50" font-family="Arial" font-size="14" text-anchor="middle">Capacitance (C)</text>
      <text x="10" y="68" font-family="Arial" font-size="12" text-anchor="middle">Energy storage</text>
    </g>
    
    <!-- Inductor -->
    <g transform="translate(240, 250)">
      <use xlink:href="#inductor" x="0" y="0" width="60" height="20" />
      <text x="30" y="40" font-family="Arial" font-size="14" text-anchor="middle">Inductance (L)</text>
      <text x="30" y="58" font-family="Arial" font-size="12" text-anchor="middle">Magnetic energy</text>
    </g>
    
    <!-- Units -->
    <rect x="50" y="320" width="250" height="80" rx="5" ry="5" fill="#fff4e6" stroke="#ffaa00" stroke-width="1" />
    <text x="175" y="340" font-family="Arial" font-size="14" text-anchor="middle" font-weight="bold">Units</text>
    <text x="175" y="365" font-family="Arial" font-size="12" text-anchor="middle">Resistance: Ohms (Ω)</text>
    <text x="175" y="385" font-family="Arial" font-size="12" text-anchor="middle">Capacitance: Farads (F)</text>
    <text x="175" y="405" font-family="Arial" font-size="12" text-anchor="middle">Inductance: Henries (H)</text>
  </g>
  
  <!-- Thermal Impedance Side -->
  <g>
    <rect x="400" y="70" width="250" height="50" rx="5" ry="5" fill="url(#blueGradient)" />
    <text x="525" y="100" font-family="Arial" font-size="20" text-anchor="middle" font-weight="bold" fill="#333333">Thermal Impedance</text>
    
    <!-- Basic Definition -->
    <rect x="400" y="130" width="250" height="70" rx="5" ry="5" fill="#e6f2ff" stroke="#0066cc" stroke-width="1" />
    <text x="525" y="155" font-family="Arial" font-size="14" text-anchor="middle">Opposition to heat flow</text>
    <text x="525" y="180" font-family="Arial" font-size="14" text-anchor="middle">Z = R + jX (K/W)</text>
    
    <!-- Components -->
    <text x="525" y="230" font-family="Arial" font-size="16" text-anchor="middle" font-weight="bold">Components</text>
    
    <!-- Thermal Resistor -->
    <g transform="translate(410, 250)">
      <use xlink:href="#thermalResistor" x="0" y="0" width="60" height="20" />
      <text x="30" y="40" font-family="Arial" font-size="14" text-anchor="middle">Thermal Resistance</text>
      <text x="30" y="58" font-family="Arial" font-size="12" text-anchor="middle">Heat flow resistance</text>
    </g>
    
    <!-- Thermal Capacitor -->
    <g transform="translate(515, 250)">
      <use xlink:href="#thermalCapacitor" x="0" y="0" width="20" height="30" />
      <text x="10" y="50" font-family="Arial" font-size="14" text-anchor="middle">Thermal Capacitance</text>
      <text x="10" y="68" font-family="Arial" font-size="12" text-anchor="middle">Heat storage</text>
    </g>
    
    <!-- Thermal Mass -->
    <g transform="translate(590, 250)">
      <use xlink:href="#thermalInductor" x="0" y="0" width="60" height="20" />
      <text x="30" y="40" font-family="Arial" font-size="14" text-anchor="middle">Thermal Mass</text>
      <text x="30" y="58" font-family="Arial" font-size="12" text-anchor="middle">Dynamic effects</text>
    </g>
    
    <!-- Units -->
    <rect x="400" y="320" width="250" height="80" rx="5" ry="5" fill="#e6f2ff" stroke="#0066cc" stroke-width="1" />
    <text x="525" y="340" font-family="Arial" font-size="14" text-anchor="middle" font-weight="bold">Units</text>
    <text x="525" y="365" font-family="Arial" font-size="12" text-anchor="middle">Thermal Resistance: K/W</text>
    <text x="525" y="385" font-family="Arial" font-size="12" text-anchor="middle">Thermal Capacitance: J/K</text>
    <text x="525" y="405" font-family="Arial" font-size="12" text-anchor="middle">Time Constant: s (seconds)</text>
  </g>
  
  <!-- Analogies -->
  <rect x="150" y="410" width="400" height="30" rx="5" ry="5" fill="#e6ffe6" stroke="#339933" stroke-width="1" />
  <text x="350" y="430" font-family="Arial" font-size="14" text-anchor="middle" font-style="italic">Both are complex quantities that vary with frequency</text>
</svg>
