<?xml version="1.0" encoding="UTF-8" standalone="no"?>
<svg width="800" height="500" xmlns="http://www.w3.org/2000/svg" xmlns:xlink="http://www.w3.org/1999/xlink">
  <defs>
    <!-- Gradient for Electrical Domain -->
    <linearGradient id="electrical-gradient" x1="0%" y1="0%" x2="100%" y2="0%">
      <stop offset="0%" stop-color="#3498db" stop-opacity="0.8" />
      <stop offset="100%" stop-color="#2980b9" stop-opacity="0.9" />
    </linearGradient>
    
    <!-- Gradient for Thermal Domain -->
    <linearGradient id="thermal-gradient" x1="0%" y1="0%" x2="100%" y2="0%">
      <stop offset="0%" stop-color="#e74c3c" stop-opacity="0.8" />
      <stop offset="100%" stop-color="#c0392b" stop-opacity="0.9" />
    </linearGradient>
    
    <!-- Gradient for Integrated Domain -->
    <linearGradient id="integrated-gradient" x1="0%" y1="0%" x2="100%" y2="0%">
      <stop offset="0%" stop-color="#9b59b6" stop-opacity="0.8" />
      <stop offset="100%" stop-color="#8e44ad" stop-opacity="0.9" />
    </linearGradient>
    
    <!-- Sine Wave Animation for Electrical -->
    <path id="electrical-wave" d="M0,0 Q25,-20 50,0 T100,0 T150,0 T200,0">
      <animate attributeName="d" 
               values="M0,0 Q25,-20 50,0 T100,0 T150,0 T200,0;
                      M0,0 Q25,20 50,0 T100,0 T150,0 T200,0;
                      M0,0 Q25,-20 50,0 T100,0 T150,0 T200,0" 
               dur="2s" 
               repeatCount="indefinite" />
    </path>
    
    <!-- Sine Wave Animation for Thermal -->
    <path id="thermal-wave" d="M0,0 Q25,-15 50,0 T100,0 T150,0 T200,0">
      <animate attributeName="d" 
               values="M0,0 Q25,-15 50,0 T100,0 T150,0 T200,0;
                      M0,0 Q25,15 50,0 T100,0 T150,0 T200,0;
                      M0,0 Q25,-15 50,0 T100,0 T150,0 T200,0" 
               dur="4s" 
               repeatCount="indefinite" />
    </path>
    
    <!-- Filter for shadow effects -->
    <filter id="shadow" x="-20%" y="-20%" width="140%" height="140%">
      <feGaussianBlur in="SourceAlpha" stdDeviation="3" result="blur" />
      <feOffset in="blur" dx="2" dy="2" result="offsetBlur" />
      <feComposite in="SourceGraphic" in2="offsetBlur" operator="over" />
    </filter>
  </defs>
  
  <!-- Background -->
  <rect width="800" height="500" fill="#f8f9fa" />
  
  <!-- Title -->
  <text x="400" y="40" font-family="Arial, sans-serif" font-size="24" font-weight="bold" text-anchor="middle" fill="#333">
    Electrical-Thermal Impedance Integration
  </text>
  
  <!-- Electrical Domain -->
  <g transform="translate(100, 120)">
    <rect width="250" height="160" rx="15" ry="15" fill="url(#electrical-gradient)" filter="url(#shadow)" />
    <text x="125" y="30" font-family="Arial, sans-serif" font-size="18" font-weight="bold" text-anchor="middle" fill="white">
      Electrical Impedance
    </text>
    
    <!-- Electrical Impedance Elements -->
    <g transform="translate(25, 60)">
      <!-- Resistor -->
      <rect x="0" y="0" width="40" height="15" fill="white" />
      <text x="20" y="30" font-family="Arial, sans-serif" font-size="12" text-anchor="middle" fill="white">R</text>
      
      <!-- Capacitor -->
      <g transform="translate(70, 0)">
        <line x1="0" y1="0" x2="0" y2="15" stroke="white" stroke-width="2" />
        <line x1="10" y1="0" x2="10" y2="15" stroke="white" stroke-width="2" />
        <text x="5" y="30" font-family="Arial, sans-serif" font-size="12" text-anchor="middle" fill="white">C</text>
      </g>
      
      <!-- Inductor -->
      <g transform="translate(110, 5)">
        <path d="M0,0 C5,-5 10,5 15,0 C20,-5 25,5 30,0" stroke="white" stroke-width="2" fill="none" />
        <text x="15" y="25" font-family="Arial, sans-serif" font-size="12" text-anchor="middle" fill="white">L</text>
      </g>
      
      <!-- Sine Wave -->
      <g transform="translate(160, 5)">
        <use xlink:href="#electrical-wave" stroke="white" stroke-width="2" fill="none" />
      </g>
    </g>
    
    <text x="125" y="120" font-family="Arial, sans-serif" font-size="14" text-anchor="middle" fill="white">
      0.1Hz - 500kHz
    </text>
    
    <text x="125" y="140" font-family="Arial, sans-serif" font-size="12" text-anchor="middle" fill="white">
      Measures electrical properties
    </text>
  </g>
  
  <!-- Thermal Domain -->
  <g transform="translate(450, 120)">
    <rect width="250" height="160" rx="15" ry="15" fill="url(#thermal-gradient)" filter="url(#shadow)" />
    <text x="125" y="30" font-family="Arial, sans-serif" font-size="18" font-weight="bold" text-anchor="middle" fill="white">
      Thermal Impedance
    </text>
    
    <!-- Thermal Impedance Elements -->
    <g transform="translate(25, 60)">
      <!-- Thermal Resistor -->
      <g>
        <rect x="0" y="0" width="40" height="15" fill="white" />
        <text x="20" y="30" font-family="Arial, sans-serif" font-size="12" text-anchor="middle" fill="white">Rth</text>
      </g>
      
      <!-- Thermal Capacitor -->
      <g transform="translate(70, 0)">
        <rect x="0" y="0" width="30" height="15" rx="7.5" ry="7.5" fill="white" />
        <text x="15" y="30" font-family="Arial, sans-serif" font-size="12" text-anchor="middle" fill="white">Cth</text>
      </g>
      
      <!-- Heat Flow -->
      <g transform="translate(130, 5)">
        <line x1="0" y1="0" x2="60" y2="0" stroke="white" stroke-width="2" />
        <polygon points="60,0 50,-5 50,5" fill="white" />
      </g>
      
      <!-- Sine Wave (Slower) -->
      <g transform="translate(160, 5)">
        <use xlink:href="#thermal-wave" stroke="white" stroke-width="2" fill="none" />
      </g>
    </g>
    
    <text x="125" y="120" font-family="Arial, sans-serif" font-size="14" text-anchor="middle" fill="white">
      0.01Hz - 10Hz
    </text>
    
    <text x="125" y="140" font-family="Arial, sans-serif" font-size="12" text-anchor="middle" fill="white">
      Measures thermal properties
    </text>
  </g>
  
  <!-- Integration Domain -->
  <g transform="translate(275, 320)">
    <rect width="250" height="160" rx="15" ry="15" fill="url(#integrated-gradient)" filter="url(#shadow)" />
    <text x="125" y="30" font-family="Arial, sans-serif" font-size="18" font-weight="bold" text-anchor="middle" fill="white">
      Integrated Analysis
    </text>
    
    <!-- Integration Elements -->
    <g transform="translate(25, 60)">
      <!-- Multi-dimensional Matrix -->
      <g>
        <rect x="0" y="-10" width="40" height="40" fill="white" opacity="0.7" />
        <rect x="5" y="-5" width="40" height="40" fill="white" opacity="0.7" />
        <rect x="10" y="0" width="40" height="40" fill="white" opacity="0.7" />
      </g>
      
      <!-- AI Analysis -->
      <g transform="translate(70, 0)">
        <circle cx="15" cy="10" r="20" fill="white" opacity="0.7" />
        <path d="M5,10 L25,10 M15,0 L15,20 M5,0 L25,20 M5,20 L25,0" 
              stroke="#8e44ad" stroke-width="2" />
      </g>
      
      <!-- Correlation -->
      <g transform="translate(120, 10)">
        <line x1="0" y1="0" x2="60" y2="0" stroke="white" stroke-width="2" />
        <circle cx="20" cy="0" r="5" fill="white" />
        <circle cx="40" cy="0" r="5" fill="white" />
      </g>
    </g>
    
    <text x="125" y="120" font-family="Arial, sans-serif" font-size="14" text-anchor="middle" fill="white">
      Multidimensional Analysis
    </text>
    
    <text x="125" y="140" font-family="Arial, sans-serif" font-size="12" text-anchor="middle" fill="white">
      Correlates electrical and thermal behaviors
    </text>
  </g>
  
  <!-- Connection Arrows -->
  <g>
    <!-- Electrical to Integration -->
    <path d="M225,280 L275,320" stroke="#3498db" stroke-width="3" fill="none" marker-end="url(#arrowhead)" />
    <polygon points="275,320 265,315 265,325" fill="#3498db" />
    
    <!-- Thermal to Integration -->
    <path d="M575,280 L525,320" stroke="#e74c3c" stroke-width="3" fill="none" marker-end="url(#arrowhead)" />
    <polygon points="525,320 535,315 535,325" fill="#e74c3c" />
  </g>
  
  <!-- Key Benefits -->
  <g transform="translate(50, 430)">
    <text font-family="Arial, sans-serif" font-size="16" font-weight="bold" fill="#333">Key Benefits:</text>
    <text x="20" y="25" font-family="Arial, sans-serif" font-size="14" fill="#333">• Enhanced diagnostic capabilities</text>
    <text x="20" y="50" font-family="Arial, sans-serif" font-size="14" fill="#333">• Improved prediction accuracy</text>
  </g>
  
  <g transform="translate(400, 430)">
    <text x="20" y="25" font-family="Arial, sans-serif" font-size="14" fill="#333">• Comprehensive system characterization</text>
    <text x="20" y="50" font-family="Arial, sans-serif" font-size="14" fill="#333">• Multi-physics understanding</text>
  </g>
</svg>
