<?xml version="1.0" encoding="UTF-8" standalone="no"?>
<svg xmlns="http://www.w3.org/2000/svg" width="800" height="500" viewBox="0 0 800 500">
  <defs>
    <linearGradient id="moduleGradient" x1="0%" y1="0%" x2="0%" y2="100%">
      <stop offset="0%" style="stop-color:#ffffff;stop-opacity:1" />
      <stop offset="100%" style="stop-color:#f0f0f0;stop-opacity:1" />
    </linearGradient>
    
    <linearGradient id="electricalGradient" x1="0%" y1="0%" x2="100%" y1="0%">
      <stop offset="0%" style="stop-color:#ff6600;stop-opacity:0.2" />
      <stop offset="100%" style="stop-color:#ffcc00;stop-opacity:0.2" />
    </linearGradient>
    
    <linearGradient id="thermalGradient" x1="0%" y1="0%" x2="100%" y1="0%">
      <stop offset="0%" style="stop-color:#0066cc;stop-opacity:0.2" />
      <stop offset="100%" style="stop-color:#66ccff;stop-opacity:0.2" />
    </linearGradient>
    
    <linearGradient id="processorGradient" x1="0%" y1="0%" x2="100%" y1="0%">
      <stop offset="0%" style="stop-color:#339933;stop-opacity:0.2" />
      <stop offset="100%" style="stop-color:#99cc99;stop-opacity:0.2" />
    </linearGradient>
    
    <linearGradient id="aiGradient" x1="0%" y1="0%" x2="100%" y1="0%">
      <stop offset="0%" style="stop-color:#9933cc;stop-opacity:0.2" />
      <stop offset="100%" style="stop-color:#cc99ff;stop-opacity:0.2" />
    </linearGradient>
    
    <linearGradient id="powerGradient" x1="0%" y1="0%" x2="100%" y1="0%">
      <stop offset="0%" style="stop-color:#cc3333;stop-opacity:0.2" />
      <stop offset="100%" style="stop-color:#ff9999;stop-opacity:0.2" />
    </linearGradient>
    
    <linearGradient id="thermalManagementGradient" x1="0%" y1="0%" x2="100%" y1="0%">
      <stop offset="0%" style="stop-color:#3399cc;stop-opacity:0.2" />
      <stop offset="100%" style="stop-color:#99ccff;stop-opacity:0.2" />
    </linearGradient>
    
    <marker id="arrowhead" markerWidth="10" markerHeight="7" refX="9" refY="3.5" orient="auto">
      <polygon points="0 0, 10 3.5, 0 7" fill="#666666" />
    </marker>
  </defs>
  
  <!-- Background -->
  <rect width="800" height="500" fill="#f8f8f8" />
  
  <!-- Title -->
  <text x="400" y="30" font-family="Arial" font-size="24" text-anchor="middle" font-weight="bold">Integrated Electrical-Thermal Impedance Analysis System</text>
  
  <!-- System Under Test -->
  <g transform="translate(350, 150)">
    <rect x="-80" y="-50" width="160" height="100" rx="10" ry="10" fill="#ffffff" stroke="#333333" stroke-width="2" />
    <text x="0" y="0" font-family="Arial" font-size="16" text-anchor="middle" font-weight="bold">System Under Test</text>
    <text x="0" y="25" font-family="Arial" font-size="12" text-anchor="middle">(Battery, Semiconductor,</text>
    <text x="0" y="45" font-family="Arial" font-size="12" text-anchor="middle">Biological Tissue, etc.)</text>
  </g>
  
  <!-- Electrical Impedance Module -->
  <g transform="translate(150, 300)">
    <rect x="-100" y="-60" width="200" height="120" rx="10" ry="10" fill="url(#electricalGradient)" stroke="#ff6600" stroke-width="2" />
    <text x="0" y="-30" font-family="Arial" font-size="16" text-anchor="middle" font-weight="bold">Electrical Impedance</text>
    <text x="0" y="-10" font-family="Arial" font-size="16" text-anchor="middle" font-weight="bold">Module (EIS)</text>
    
    <!-- Module details -->
    <rect x="-80" y="10" width="160" height="30" rx="5" ry="5" fill="#ffffff" stroke="#ff6600" stroke-width="1" />
    <text x="0" y="30" font-family="Arial" font-size="12" text-anchor="middle">0.1Hz - 500kHz</text>
    
    <!-- Connection to System Under Test -->
    <path d="M0,-60 L0,-90 L350,-90 L350,-50" stroke="#ff6600" stroke-width="2" fill="none" marker-end="url(#arrowhead)" />
  </g>
  
  <!-- Thermal Impedance Module -->
  <g transform="translate(550, 300)">
    <rect x="-100" y="-60" width="200" height="120" rx="10" ry="10" fill="url(#thermalGradient)" stroke="#0066cc" stroke-width="2" />
    <text x="0" y="-30" font-family="Arial" font-size="16" text-anchor="middle" font-weight="bold">Thermal Impedance</text>
    <text x="0" y="-10" font-family="Arial" font-size="16" text-anchor="middle" font-weight="bold">Module (TIS)</text>
    
    <!-- Module details -->
    <rect x="-80" y="10" width="160" height="30" rx="5" ry="5" fill="#ffffff" stroke="#0066cc" stroke-width="1" />
    <text x="0" y="30" font-family="Arial" font-size="12" text-anchor="middle">0.01Hz - 10Hz</text>
    
    <!-- Connection to System Under Test -->
    <path d="M0,-60 L0,-90 L-200,-90 L-200,-50" stroke="#0066cc" stroke-width="2" fill="none" marker-end="url(#arrowhead)" />
  </g>
  
  <!-- Integrated Signal Processor -->
  <g transform="translate(350, 300)">
    <rect x="-100" y="-60" width="200" height="120" rx="10" ry="10" fill="url(#processorGradient)" stroke="#339933" stroke-width="2" />
    <text x="0" y="-30" font-family="Arial" font-size="16" text-anchor="middle" font-weight="bold">Integrated Signal</text>
    <text x="0" y="-10" font-family="Arial" font-size="16" text-anchor="middle" font-weight="bold">Processor</text>
    
    <!-- Module details -->
    <rect x="-80" y="10" width="160" height="30" rx="5" ry="5" fill="#ffffff" stroke="#339933" stroke-width="1" />
    <text x="0" y="30" font-family="Arial" font-size="12" text-anchor="middle">FPGA-based Real-time</text>
    
    <!-- Connections to other modules -->
    <path d="M-100,0 L-150,0" stroke="#666666" stroke-width="2" fill="none" marker-end="url(#arrowhead)" />
    <path d="M100,0 L150,0" stroke="#666666" stroke-width="2" fill="none" marker-end="url(#arrowhead)" />
  </g>
  
  <!-- AI-based Analysis Engine -->
  <g transform="translate(350, 430)">
    <rect x="-100" y="-30" width="200" height="60" rx="10" ry="10" fill="url(#aiGradient)" stroke="#9933cc" stroke-width="2" />
    <text x="0" y="0" font-family="Arial" font-size="16" text-anchor="middle" font-weight="bold">AI-based Analysis Engine</text>
    
    <!-- Connection to Integrated Signal Processor -->
    <path d="M0,-30 L0,-60" stroke="#9933cc" stroke-width="2" fill="none" marker-end="url(#arrowhead)" />
  </g>
  
  <!-- Power Management Module -->
  <g transform="translate(150, 430)">
    <rect x="-100" y="-30" width="200" height="60" rx="10" ry="10" fill="url(#powerGradient)" stroke="#cc3333" stroke-width="2" />
    <text x="0" y="0" font-family="Arial" font-size="16" text-anchor="middle" font-weight="bold">Power Management Module</text>
    
    <!-- Connection to Electrical Impedance Module -->
    <path d="M0,-30 L0,-60" stroke="#cc3333" stroke-width="2" fill="none" marker-end="url(#arrowhead)" />
  </g>
  
  <!-- Thermal Management System -->
  <g transform="translate(550, 430)">
    <rect x="-100" y="-30" width="200" height="60" rx="10" ry="10" fill="url(#thermalManagementGradient)" stroke="#3399cc" stroke-width="2" />
    <text x="0" y="0" font-family="Arial" font-size="16" text-anchor="middle" font-weight="bold">Thermal Management System</text>
    
    <!-- Connection to Thermal Impedance Module -->
    <path d="M0,-30 L0,-60" stroke="#3399cc" stroke-width="2" fill="none" marker-end="url(#arrowhead)" />
  </g>
  
  <!-- PCM Annotation -->
  <g transform="translate(650, 380)">
    <rect x="-70" y="-20" width="140" height="40" rx="5" ry="5" fill="#ffffff" stroke="#3399cc" stroke-width="1" />
    <text x="0" y="0" font-family="Arial" font-size="12" text-anchor="middle">Phase Change Materials</text>
    <text x="0" y="18" font-family="Arial" font-size="12" text-anchor="middle">(PCM)</text>
    
    <!-- Connection arrow -->
    <path d="M-70,0 L-90,0" stroke="#3399cc" stroke-width="1" stroke-dasharray="4,2" fill="none" marker-end="url(#arrowhead)" />
  </g>
  
  <!-- FPGA Annotation -->
  <g transform="translate(450, 240)">
    <rect x="-70" y="-20" width="140" height="40" rx="5" ry="5" fill="#ffffff" stroke="#339933" stroke-width="1" />
    <text x="0" y="0" font-family="Arial" font-size="12" text-anchor="middle">Real-time Processing</text>
    <text x="0" y="18" font-family="Arial" font-size="12" text-anchor="middle">FPGA-based</text>
    
    <!-- Connection arrow -->
    <path d="M-70,0 L-90,0 L-90,40" stroke="#339933" stroke-width="1" stroke-dasharray="4,2" fill="none" marker-end="url(#arrowhead)" />
  </g>
  
  <!-- Deep Learning Annotation -->
  <g transform="translate(250, 460)">
    <rect x="-70" y="-20" width="140" height="40" rx="5" ry="5" fill="#ffffff" stroke="#9933cc" stroke-width="1" />
    <text x="0" y="0" font-family="Arial" font-size="12" text-anchor="middle">Deep Learning Models</text>
    <text x="0" y="18" font-family="Arial" font-size="12" text-anchor="middle">Pattern Recognition</text>
    
    <!-- Connection arrow -->
    <path d="M70,0 L90,0" stroke="#9933cc" stroke-width="1" stroke-dasharray="4,2" fill="none" marker-end="url(#arrowhead)" />
  </g>
  
  <!-- Note about Patent -->
  <g transform="translate(400, 490)">
    <rect x="-300" y="-15" width="600" height="25" rx="5" ry="5" fill="#fff4e6" stroke="#ff6600" stroke-width="1" />
    <text x="0" y="5" font-family="Arial" font-size="12" text-anchor="middle" font-style="italic">
      Based on patented technology from Ucaretron Inc. (Inventor: Jang Ji Hwan)
    </text>
  </g>
</svg>
