<?xml version="1.0" encoding="UTF-8" standalone="no"?>
<svg xmlns="http://www.w3.org/2000/svg" width="700" height="500" viewBox="0 0 700 500">
  <defs>
    <linearGradient id="tempGradient" x1="0%" y1="0%" x2="100%" y1="0%">
      <stop offset="0%" style="stop-color:#ff3300;stop-opacity:1" />
      <stop offset="50%" style="stop-color:#ffcc00;stop-opacity:1" />
      <stop offset="100%" style="stop-color:#0066ff;stop-opacity:1" />
    </linearGradient>
    
    <linearGradient id="heatFlowGradient" x1="0%" y1="0%" x2="100%" y1="0%">
      <stop offset="0%" style="stop-color:#ff3300;stop-opacity:1" />
      <stop offset="100%" style="stop-color:#ffcc00;stop-opacity:0.5" />
    </linearGradient>
    
    <marker id="arrowhead" markerWidth="10" markerHeight="7" refX="9" refY="3.5" orient="auto">
      <polygon points="0 0, 10 3.5, 0 7" fill="#333333" />
    </marker>
    
    <!-- Sine Wave Patterns -->
    <symbol id="sinWave" viewBox="0 0 100 30">
      <path d="M0,15 C5,5 15,5 25,15 S45,25 55,15 S75,5 85,15 S100,25 100,15" 
            stroke="#333333" stroke-width="1.5" fill="none" />
    </symbol>
    
    <symbol id="sinWavePhaseShift" viewBox="0 0 100 30">
      <path d="M0,15 C5,25 15,25 25,15 S45,5 55,15 S75,25 85,15 S100,5 100,15" 
            stroke="#333333" stroke-width="1.5" fill="none" />
    </symbol>
    
    <symbol id="thermalResistor" viewBox="0 0 60 20">
      <rect x="0" y="0" width="60" height="20" fill="#dddddd" stroke="#333333" stroke-width="1.5" />
    </symbol>
    
    <symbol id="thermalCapacitor" viewBox="0 0 20 40">
      <line x1="5" y1="0" x2="5" y2="40" stroke="#333333" stroke-width="2" />
      <line x1="15" y1="0" x2="15" y2="40" stroke="#333333" stroke-width="2" />
    </symbol>
  </defs>
  
  <!-- Background -->
  <rect width="700" height="500" fill="#f8f8f8" />
  
  <!-- Title -->
  <text x="350" y="30" font-family="Arial" font-size="22" text-anchor="middle" font-weight="bold">Thermal Impedance Spectroscopy (TIS)</text>
  
  <!-- Measurement Process Section -->
  <g>
    <rect x="50" y="50" width="600" height="200" rx="10" ry="10" fill="#ffffff" stroke="#666666" stroke-width="1" />
    <text x="350" y="75" font-family="Arial" font-size="18" text-anchor="middle" font-weight="bold">Measurement Process</text>
    
    <!-- Step 1: Apply Thermal Stimulus -->
    <g transform="translate(80, 100)">
      <circle cx="25" cy="25" r="25" fill="url(#heatFlowGradient)" />
      <text x="25" y="65" font-family="Arial" font-size="12" text-anchor="middle" font-weight="bold">1</text>
      <text x="25" y="80" font-family="Arial" font-size="11" text-anchor="middle">Apply Thermal</text>
      <text x="25" y="94" font-family="Arial" font-size="11" text-anchor="middle">Stimulus</text>
      
      <!-- Heat Source -->
      <use xlink:href="#sinWave" x="70" y="10" width="80" height="30" />
      <text x="110" y="55" font-family="Arial" font-size="10" text-anchor="middle">Input Heat Signal</text>
    </g>
    
    <!-- Step 2: Measure Temperature Response -->
    <g transform="translate(230, 100)">
      <rect x="0" y="0" width="50" height="50" fill="#e6f2ff" stroke="#0066cc" stroke-width="1.5" rx="5" ry="5" />
      <text x="25" y="30" font-family="Arial" font-size="20" text-anchor="middle">T</text>
      <text x="25" y="65" font-family="Arial" font-size="12" text-anchor="middle" font-weight="bold">2</text>
      <text x="25" y="80" font-family="Arial" font-size="11" text-anchor="middle">Measure</text>
      <text x="25" y="94" font-family="Arial" font-size="11" text-anchor="middle">Temperature</text>
      
      <!-- Temperature Response -->
      <use xlink:href="#sinWavePhaseShift" x="70" y="10" width="80" height="30" stroke="#0066cc" />
      <text x="110" y="55" font-family="Arial" font-size="10" text-anchor="middle">Temperature Response</text>
    </g>
    
    <!-- Step 3: Calculate Impedance -->
    <g transform="translate(380, 100)">
      <rect x="0" y="0" width="50" height="50" fill="#fff4e6" stroke="#ff6600" stroke-width="1.5" rx="5" ry="5" />
      <text x="25" y="20" font-family="Arial" font-size="14" text-anchor="middle">Z(ω)</text>
      <text x="25" y="35" font-family="Arial" font-size="14" text-anchor="middle">=</text>
      <text x="25" y="50" font-family="Arial" font-size="14" text-anchor="middle">T/Q</text>
      
      <text x="25" y="65" font-family="Arial" font-size="12" text-anchor="middle" font-weight="bold">3</text>
      <text x="25" y="80" font-family="Arial" font-size="11" text-anchor="middle">Calculate</text>
      <text x="25" y="94" font-family="Arial" font-size="11" text-anchor="middle">Impedance</text>
    </g>
    
    <!-- Step 4: Analyze Spectrum -->
    <g transform="translate(530, 100)">
      <path d="M0,25 C10,40 20,10 30,25 S40,40 50,25" stroke="#333333" stroke-width="2" fill="none" />
      <text x="25" y="65" font-family="Arial" font-size="12" text-anchor="middle" font-weight="bold">4</text>
      <text x="25" y="80" font-family="Arial" font-size="11" text-anchor="middle">Analyze</text>
      <text x="25" y="94" font-family="Arial" font-size="11" text-anchor="middle">Spectrum</text>
    </g>
    
    <!-- Process Flow Arrows -->
    <g stroke="#666666" stroke-width="1.5" fill="none" marker-end="url(#arrowhead)">
      <path d="M180,125 H220" />
      <path d="M330,125 H370" />
      <path d="M480,125 H520" />
    </g>
    
    <!-- Frequency Range Note -->
    <rect x="100" y="170" width="500" height="30" rx="5" ry="5" fill="#f0f0f0" stroke="#999999" stroke-width="1" />
    <text x="350" y="190" font-family="Arial" font-size="14" text-anchor="middle" font-style="italic">Measurements performed across multiple frequencies (typically 0.001 Hz - 10 Hz)</text>
  </g>
  
  <!-- Impedance Spectra Section -->
  <g transform="translate(50, 270)">
    <rect x="0" y="0" width="600" height="220" rx="10" ry="10" fill="#ffffff" stroke="#666666" stroke-width="1" />
    <text x="300" y="25" font-family="Arial" font-size="18" text-anchor="middle" font-weight="bold">Thermal Impedance Spectra Analysis</text>
    
    <!-- Nyquist Plot -->
    <g transform="translate(30, 50)">
      <rect x="0" y="0" width="150" height="150" fill="#ffffff" stroke="#999999" stroke-width="1" />
      <path d="M10,140 H140" stroke="#333333" stroke-width="1" />
      <path d="M10,140 V10" stroke="#333333" stroke-width="1" />
      
      <text x="75" y="165" font-family="Arial" font-size="12" text-anchor="middle">Re(Z) (K/W)</text>
      <text x="-40" y="75" font-family="Arial" font-size="12" text-anchor="middle" transform="rotate(-90, -40, 75)">-Im(Z) (K/W)</text>
      
      <!-- Example Semicircle -->
      <path d="M30,120 Q75,30 120,120" stroke="#ff3300" stroke-width="2" fill="none" />
      <text x="75" y="180" font-family="Arial" font-size="14" text-anchor="middle" font-weight="bold">Nyquist Plot</text>
    </g>
    
    <!-- Bode Plot -->
    <g transform="translate(220, 50)">
      <rect x="0" y="0" width="150" height="150" fill="#ffffff" stroke="#999999" stroke-width="1" />
      <path d="M10,140 H140" stroke="#333333" stroke-width="1" />
      <path d="M10,140 V10" stroke="#333333" stroke-width="1" />
      
      <text x="75" y="165" font-family="Arial" font-size="12" text-anchor="middle">Frequency (Hz)</text>
      <text x="-30" y="75" font-family="Arial" font-size="12" text-anchor="middle" transform="rotate(-90, -30, 75)">|Z| (K/W)</text>
      
      <!-- Example Bode Plot -->
      <path d="M10,30 C50,30 80,120 140,120" stroke="#0066cc" stroke-width="2" fill="none" />
      <text x="75" y="180" font-family="Arial" font-size="14" text-anchor="middle" font-weight="bold">Magnitude Plot</text>
    </g>
    
    <!-- Thermal Model -->
    <g transform="translate(410, 50)">
      <rect x="0" y="0" width="150" height="150" fill="#ffffff" stroke="#999999" stroke-width="1" />
      
      <!-- Thermal Equivalent Circuit -->
      <use xlink:href="#thermalResistor" x="45" y="40" width="60" height="20" />
      <text x="75" y="35" font-family="Arial" font-size="10" text-anchor="middle">R₁</text>
      
      <line x1="45" y1="50" x2="20" y2="50" stroke="#333333" stroke-width="1.5" />
      <line x1="105" y1="50" x2="130" y2="50" stroke="#333333" stroke-width="1.5" />
      
      <line x1="75" y1="60" x2="75" y2="70" stroke="#333333" stroke-width="1.5" />
      <use xlink:href="#thermalCapacitor" x="65" y="70" width="20" height="40" />
      <text x="95" y="90" font-family="Arial" font-size="10" text-anchor="middle">C₁</text>
      
      <line x1="75" y1="110" x2="75" y2="120" stroke="#333333" stroke-width="1.5" />
      <line x1="20" y1="120" x2="130" y2="120" stroke="#333333" stroke-width="1.5" />
      
      <text x="75" y="180" font-family="Arial" font-size="14" text-anchor="middle" font-weight="bold">Thermal Model</text>
    </g>
  </g>
  
  <!-- Benefits Banner -->
  <g transform="translate(50, 500)">
    <rect x="0" y="-30" width="600" height="30" rx="5" ry="5" fill="#e6ffe6" stroke="#339933" stroke-width="1" />
    <text x="300" y="-10" font-family="Arial" font-size="14" text-anchor="middle" font-style="italic">
      Reveals thermal time constants, interface quality, defects & dynamic behavior
    </text>
  </g>
</svg>
